<svg id="Layer_1" data-name="Layer 1" xmlns="http://www.w3.org/2000/svg" viewBox="0 0 400 400"><defs><style>.cls-1{fill:#0033a1;}</style></defs><path class="cls-1" d="M200,81.57a118.44,118.44,0,1,1-83.74,34.69A117.64,117.64,0,0,1,200,81.57m0-22.3A140.73,140.73,0,1,0,340.73,200,140.73,140.73,0,0,0,200,59.27Z"/><path class="cls-1" d="M284.1,221.27a3.36,3.36,0,0,1-.65,1.83l-6.11,7.43a2.88,2.88,0,0,1-4,.38L216.9,184.48a2.9,2.9,0,0,0-3.66,0l-56.38,46.43a3.37,3.37,0,0,1-1.83.66,3.24,3.24,0,0,1-2.22-1l-6.12-7.43a3.37,3.37,0,0,1-.66-1.83,3.26,3.26,0,0,1,1.05-2.22l60.67-50a11.51,11.51,0,0,1,14.62,0l21.46,17.66v-17.4a2.88,2.88,0,0,1,2.87-2.88h13.43a2.88,2.88,0,0,1,2.87,2.88v33.19L283,219A3.25,3.25,0,0,1,284.1,221.27Zm-69-27.61a3.43,3.43,0,0,1,1.83.64l44.18,36.37V270a3.82,3.82,0,0,1-3.83,3.83l-26.85-.07h0a3.83,3.83,0,0,1-3.83-3.83V247a3.83,3.83,0,0,0-3.84-3.83H207.39a3.82,3.82,0,0,0-3.83,3.83v22.94a3.85,3.85,0,0,1-3.82,3.84l-26.86.06a3.83,3.83,0,0,1-3.83-3.83V230.7l44.19-36.4A3.43,3.43,0,0,1,215.07,193.66Z"/><path class="cls-1" d="M191.87,153.55A23.2,23.2,0,0,1,168,159.09l-34.48,34.48a10.35,10.35,0,0,1-14.63-14.64l34.51-34.51A23.16,23.16,0,0,1,181,114.49a1.94,1.94,0,0,1,.92,3.26l-12,12,1.83,11,11,1.83,12-12a1.94,1.94,0,0,1,3.25.89A23.25,23.25,0,0,1,191.87,153.55Zm-61.74,32.7a3.88,3.88,0,1,0-3.88,3.88A3.88,3.88,0,0,0,130.13,186.25Z"/></svg>