<svg id="Layer_1" data-name="Layer 1" xmlns="http://www.w3.org/2000/svg" viewBox="0 0 400 400"><defs><style>.cls-1{fill:#0033a1;}</style></defs><path class="cls-1" d="M70.4,262.36,34.13,200.24H59.85c1-40.69,15.58-75.29,45.34-103.06,18.74-17.49,40.91-28.61,65.94-34C219.76,52.86,268.84,70.49,298.8,101L284,115.29c-22.49-21.46-49.77-33.07-81.33-34.18a112.46,112.46,0,0,0-65.14,17.51c-37.07,23.44-55.23,57.71-57,101.49h26.2Z"/><path class="cls-1" d="M319.09,200.13H293.34L329.61,138c12.14,20.78,24.1,41.29,36.26,62.11H340.13c-1,40.62-15.61,75.14-45.33,102.85a135.39,135.39,0,0,1-65,33.65C179.22,347.5,130.44,329,101,298.82c2.43-2.42,4.88-4.83,7.3-7.28s4.71-4.82,7.14-7.31Q148,315.67,192.63,318.7a115.34,115.34,0,0,0,66.55-15.24A117.9,117.9,0,0,0,319.09,200.13Z"/><path class="cls-1" d="M200,119.12A80.88,80.88,0,1,0,280.88,200,80.88,80.88,0,0,0,200,119.12Zm-24.61,24.64a24.61,24.61,0,1,1-24.6,24.6A24.59,24.59,0,0,1,175.39,143.76ZM167.79,254a5.89,5.89,0,0,1-4.3,2.24l-7.34,0a5.27,5.27,0,0,1-4.33-8.3L232.67,146A5.25,5.25,0,0,1,237,143.8l6.94,0a5.27,5.27,0,0,1,4.33,8.3Zm56.82,2.28a24.61,24.61,0,1,1,24.6-24.6A24.59,24.59,0,0,1,224.61,256.24Z"/><path class="cls-1" d="M175.39,178.91a10.55,10.55,0,1,0-10.54-10.55A10.55,10.55,0,0,0,175.39,178.91Z"/><circle class="cls-1" cx="224.61" cy="231.64" r="10.55"/></svg>