<svg id="Layer_1" data-name="Layer 1" xmlns="http://www.w3.org/2000/svg" viewBox="0 0 400 400"><defs><style>.cls-1{fill:#0033a1;}</style></defs><path class="cls-1" d="M70.4,262.36,34.13,200.24H59.85c1-40.69,15.58-75.29,45.34-103.06,18.74-17.49,40.91-28.61,65.94-34C219.76,52.86,268.84,70.49,298.8,101L284,115.29c-22.49-21.46-49.77-33.07-81.33-34.18a112.46,112.46,0,0,0-65.14,17.51c-37.07,23.44-55.23,57.71-57,101.49h26.2Z"/><path class="cls-1" d="M319.09,200.13H293.34L329.61,138c12.14,20.78,24.1,41.29,36.26,62.11H340.13c-1,40.62-15.61,75.14-45.33,102.85a135.39,135.39,0,0,1-65,33.65C179.22,347.5,130.44,329,101,298.82c2.43-2.42,4.88-4.83,7.3-7.28s4.71-4.82,7.14-7.31Q148,315.67,192.63,318.7a115.34,115.34,0,0,0,66.55-15.24A117.9,117.9,0,0,0,319.09,200.13Z"/><path class="cls-1" d="M268,190a45.68,45.68,0,0,1-46.88,10.89l-67.83,67.82A20.36,20.36,0,1,1,124.52,240l67.89-67.88a45.58,45.58,0,0,1,54.28-58.89,3.82,3.82,0,0,1,1.8,6.41l-23.66,23.66,3.6,21.59,21.59,3.6,23.66-23.66a3.82,3.82,0,0,1,6.4,1.75A45.8,45.8,0,0,1,268,190ZM146.56,254.35a7.64,7.64,0,1,0-7.64,7.63A7.64,7.64,0,0,0,146.56,254.35Z"/></svg>