<svg id="Layer_1" data-name="Layer 1" xmlns="http://www.w3.org/2000/svg" viewBox="0 0 400 400"><defs><style>.cls-1{fill:#0033a1;}</style></defs><path class="cls-1" d="M104.07,271.81H95.84a4.63,4.63,0,0,1-4.63-4.64V262.6a4.64,4.64,0,0,0-7.84-3.35l-40.2,38.4a4.62,4.62,0,0,0,0,6.7l40.2,38.4a4.64,4.64,0,0,0,7.84-3.35v-4.57a4.63,4.63,0,0,1,4.63-4.64h34.31a4.64,4.64,0,0,0,3.28-7.91,93,93,0,0,1-24.83-46.75A4.61,4.61,0,0,0,104.07,271.81Z"/><path class="cls-1" d="M133.41,180.53H95.88a4.67,4.67,0,0,0-4.67,4.67v49a4.67,4.67,0,0,0,4.67,4.67h8.87a4.66,4.66,0,0,0,4.54-3.58,93.19,93.19,0,0,1,27.34-46.74A4.67,4.67,0,0,0,133.41,180.53Z"/><path class="cls-1" d="M270,330.19h34.18a4.67,4.67,0,0,0,4.67-4.67v-49a4.67,4.67,0,0,0-4.67-4.67H296a4.67,4.67,0,0,0-4.58,3.75,93.14,93.14,0,0,1-24.75,46.66A4.67,4.67,0,0,0,270,330.19Z"/><path class="cls-1" d="M356.83,206.35,316.69,168a4.67,4.67,0,0,0-7.89,3.37v4.48a4.66,4.66,0,0,1-4.66,4.67H266.57a4.66,4.66,0,0,0-3.21,8,93.15,93.15,0,0,1,27.37,46.77,4.64,4.64,0,0,0,4.52,3.57h8.89a4.66,4.66,0,0,1,4.66,4.66v4.49a4.67,4.67,0,0,0,7.89,3.37l40.14-38.34A4.66,4.66,0,0,0,356.83,206.35Z"/><path class="cls-1" d="M237.55,285.1c-4.2,12-16.11,19.58-28.82,19.83v13.14a4.37,4.37,0,0,1-4.36,4.36h-8.73a4.37,4.37,0,0,1-4.36-4.36V305a38.56,38.56,0,0,1-23.59-8.18,4.42,4.42,0,0,1-.49-6.68l9.49-9.27a4.25,4.25,0,0,1,5.32-.55,16.58,16.58,0,0,0,9.32,2.86h18.08a8,8,0,0,0,2.27-15.76l-28-8.18c-12.1-3.54-21.7-13.77-22.85-26.34a29.88,29.88,0,0,1,29.73-32.61h.68V187.18a4.38,4.38,0,0,1,4.36-4.37h8.73a4.38,4.38,0,0,1,4.36,4.37v13.09a38.5,38.5,0,0,1,23.59,8.18,4.42,4.42,0,0,1,.49,6.68l-9.49,9.27a4.25,4.25,0,0,1-5.32.54,16.66,16.66,0,0,0-9.32-2.86H190.6a8,8,0,0,0-2.27,15.76l29.45,8.62A29.94,29.94,0,0,1,237.55,285.1Z"/><path class="cls-1" d="M295.89,122.82h.86V60.63A4.69,4.69,0,0,0,292.07,56H262.45a4.69,4.69,0,0,0-4.68,4.68V94.38a4.68,4.68,0,0,1-6.91,4.12L202.22,72.23a4.66,4.66,0,0,0-4.44,0l-137,74A4.68,4.68,0,0,0,63,155H337a4.68,4.68,0,0,0,2.23-8.8Z"/></svg>